<svg width="20" height="20" viewBox="0 0 20 20" fill="none" xmlns="http://www.w3.org/2000/svg">
<path d="M10 20C7.63223 20 5.3357 19.1577 3.53348 17.6281C3.11031 17.2692 2.71336 16.8713 2.35375 16.4455C0.83582 14.6462 0 12.3573 0 10C0 7.32887 1.04016 4.81766 2.92891 2.92891C4.81766 1.04016 7.32887 0 10 0C12.6711 0 15.1823 1.04016 17.0711 2.92891C18.9598 4.81766 20 7.32887 20 10C20 12.3573 19.1642 14.6463 17.6464 16.4452C17.2866 16.8713 16.8897 17.2692 16.4664 17.6282C14.6643 19.1577 12.3678 20 10 20ZM10 1.25C5.17523 1.25 1.25 5.17523 1.25 10C1.25 12.0627 1.98121 14.0654 3.30895 15.6392C3.62379 16.012 3.97148 16.3605 4.34219 16.675C5.91891 18.0131 7.92816 18.75 10 18.75C12.0718 18.75 14.0811 18.0131 15.6577 16.675C16.0285 16.3605 16.3762 16.0119 16.6912 15.6389C18.0188 14.0654 18.75 12.0627 18.75 10C18.75 5.17523 14.8248 1.25 10 1.25Z" fill="#495A75"/>
<path d="M10 10C7.93223 10 6.25 8.31777 6.25 6.25C6.25 4.18223 7.93223 2.5 10 2.5C12.0678 2.5 13.75 4.18223 13.75 6.25C13.75 8.31777 12.0678 10 10 10ZM10 3.75C8.62148 3.75 7.5 4.87148 7.5 6.25C7.5 7.62852 8.62148 8.75 10 8.75C11.3785 8.75 12.5 7.62852 12.5 6.25C12.5 4.87148 11.3785 3.75 10 3.75Z" fill="#495A75"/>
<path d="M16.0626 17.7767C16.0122 17.7767 15.961 17.7706 15.9099 17.7578C15.5752 17.6737 15.3719 17.3342 15.4559 16.9994C15.5681 16.5524 15.625 16.09 15.625 15.625C15.625 12.567 13.1388 10.0443 10.0823 10.0004L10 10L9.9177 10.0004C6.86117 10.0443 4.375 12.567 4.375 15.625C4.375 16.09 4.43191 16.5524 4.5441 16.9994C4.62813 17.3342 4.42484 17.6737 4.09008 17.7578C3.75531 17.8418 3.41574 17.6386 3.33172 17.3038C3.19453 16.7573 3.125 16.1925 3.125 15.625C3.125 13.8055 3.82879 12.0905 5.10672 10.7957C6.3834 9.50219 8.0866 8.77586 9.90258 8.75047C9.90551 8.75043 9.9084 8.75043 9.91133 8.75043L10 8.75L10.0887 8.75039C10.0916 8.75039 10.0945 8.75039 10.0974 8.75043C11.9134 8.77578 13.6166 9.50215 14.8933 10.7957C16.1712 12.0905 16.875 13.8055 16.875 15.625C16.875 16.1925 16.8055 16.7573 16.6683 17.3038C16.5971 17.5874 16.3424 17.7767 16.0626 17.7767Z" fill="#495A75"/>
</svg>
