<svg width="46" height="46" viewBox="0 0 46 46" fill="none" xmlns="http://www.w3.org/2000/svg">
<mask id="mask0" mask-type="alpha" maskUnits="userSpaceOnUse" x="0" y="0" width="46" height="46">
<circle cx="23" cy="23" r="23" fill="#0BCAD4"/>
</mask>
<g mask="url(#mask0)">
<circle cx="23" cy="23" r="23" fill="#0BCAD4"/>
<path d="M32 40.5C32 41.8807 27.9706 43 23 43C18.0294 43 14 41.8807 14 40.5C14 39.1193 18.0294 38 23 38C27.9706 38 32 39.1193 32 40.5Z" fill="#0AA8B0"/>
</g>
<g clip-path="url(#clip0)">
<path d="M29.0816 15.0733C29.8857 15.0733 30.5375 14.4214 30.5375 13.6173C30.5375 12.8132 29.8857 12.1614 29.0816 12.1614C28.2775 12.1614 27.6256 12.8132 27.6256 13.6173C27.6256 14.4214 28.2775 15.0733 29.0816 15.0733Z" fill="#F9DBA8"/>
<path d="M15.4926 15.0733C16.2967 15.0733 16.9485 14.4214 16.9485 13.6173C16.9485 12.8132 16.2967 12.1614 15.4926 12.1614C14.6885 12.1614 14.0366 12.8132 14.0366 13.6173C14.0366 14.4214 14.6885 15.0733 15.4926 15.0733Z" fill="#F6C97D"/>
<path d="M15.9779 10.2201V15.5586C15.9779 19.0431 18.8026 21.8678 22.2871 21.8678C25.7716 21.8678 28.5963 19.0431 28.5963 15.5586V10.2201H15.9779Z" fill="#FCEDD4"/>
<path d="M24.2284 20.8972C20.7439 20.8972 17.9192 18.0725 17.9192 14.588V10.2201H15.9779V15.5586C15.9779 19.0431 18.8026 21.8678 22.2871 21.8678C23.6905 21.8678 24.9867 21.4093 26.0347 20.6343C25.4624 20.805 24.8562 20.8972 24.2284 20.8972Z" fill="#F9DBA8"/>
<path d="M22.2871 18.9558C23.3592 18.9558 24.2284 18.0867 24.2284 17.0145H20.3458C20.3458 18.0867 21.215 18.9558 22.2871 18.9558Z" fill="white"/>
<path d="M14.522 10.2201H30.0522V11.6761H14.522V10.2201Z" fill="#FCF2A0"/>
<path d="M22.2872 3.42566C18.4046 3.42566 15.4927 5.93161 15.4927 10.2202H29.0817C29.0817 5.93161 26.1697 3.42566 22.2872 3.42566Z" fill="#FAEC70"/>
<path d="M23.5005 3.51144C23.1088 3.45466 22.7036 3.42566 22.2872 3.42566C18.4046 3.42566 15.4927 5.93161 15.4927 10.2202H17.9193C17.9193 6.39158 20.2401 3.98396 23.5005 3.51144Z" fill="#F7E011"/>
<path d="M21.3164 2.45496H23.2577V10.2201H21.3164V2.45496Z" fill="#FCF2A0"/>
<path d="M31.9935 32.5449H12.5807V23.8091C12.5807 22.7369 13.4498 21.8678 14.522 21.8678H30.0522C31.1244 21.8678 31.9935 22.7369 31.9935 23.8091V32.5449Z" fill="#CEEC6C"/>
<path d="M17.9192 21.8678H14.522C13.4498 21.8678 12.5807 22.7369 12.5807 23.8091V32.5449H15.9779V23.8091C15.9779 22.7369 16.8471 21.8678 17.9192 21.8678Z" fill="#ACCD40"/>
<path d="M25.6843 21.8678L22.287 26.2357L19.3751 21.8678H25.6843Z" fill="#FCEDD4"/>
<path d="M37.728 18.049L32.1578 16.3488L27.214 32.5448H33.3031L37.728 18.049Z" fill="#DCD8DC"/>
<path d="M32.1578 16.3488L27.214 32.5448H29.4719L34.3544 17.0192L32.1578 16.3488Z" fill="#BAB2B8"/>
<path d="M37.7214 18.0616C38.1127 16.7804 37.1836 15.3611 35.6461 14.8915C34.1087 14.4219 32.5451 15.0799 32.1538 16.3611C31.7624 17.6423 32.6915 19.0616 34.229 19.5312C35.7664 20.0008 37.33 19.3428 37.7214 18.0616Z" fill="#EEECED"/>
<path d="M36.3294 17.6365C36.486 17.124 35.9897 16.5182 35.221 16.2834C34.4522 16.0486 33.7022 16.2737 33.5456 16.7862C33.3891 17.2987 33.8854 17.9045 34.6541 18.1393C35.4228 18.3741 36.1729 18.1489 36.3294 17.6365Z" fill="#978B95"/>
<path d="M16.9485 32.5448H10.1541V27.6916L13.5513 25.265L16.9485 27.6916V32.5448Z" fill="#EEECED"/>
<path d="M11.61 28.6623L14.9587 26.2703L13.5513 25.265L10.1541 27.6916V32.5448H11.61V28.6623Z" fill="#DCD8DC"/>
<path d="M12.5807 29.6329H14.522V32.5449H12.5807V29.6329Z" fill="#5F88CC"/>
<path d="M25.199 14.0723C25.4503 14.0723 25.654 13.8686 25.654 13.6173V13.132C25.654 12.8807 25.4503 12.677 25.199 12.677C24.9477 12.677 24.744 12.8807 24.744 13.132V13.6173C24.744 13.8686 24.9477 14.0723 25.199 14.0723Z" fill="black"/>
<path d="M19.3752 12.677C19.1239 12.677 18.9202 12.8807 18.9202 13.132V13.6173C18.9202 13.8686 19.1239 14.0723 19.3752 14.0723C19.6264 14.0723 19.8301 13.8686 19.8301 13.6173V13.132C19.8301 12.8807 19.6264 12.677 19.3752 12.677Z" fill="black"/>
<path d="M21.1129 15.4803L22.0836 15.9657C22.1489 15.9984 22.2183 16.0138 22.2867 16.0138C22.4536 16.0138 22.6143 15.9216 22.694 15.7622C22.8064 15.5374 22.7153 15.2641 22.4905 15.1518L21.9268 14.8699L22.694 13.3356C22.8064 13.1108 22.7153 12.8375 22.4905 12.7252C22.2657 12.6127 21.9924 12.7039 21.8801 12.9286L20.9095 14.8699C20.7971 15.0947 20.8882 15.368 21.1129 15.4803Z" fill="black"/>
<path d="M24.6834 17.0147C24.6834 16.7634 24.4797 16.5597 24.2284 16.5597H20.3459C20.0946 16.5597 19.8909 16.7634 19.8909 17.0147C19.8909 18.336 20.9659 19.411 22.2871 19.411C23.6084 19.411 24.6834 18.336 24.6834 17.0147ZM20.8721 17.4697H23.7022C23.5096 18.0674 22.948 18.501 22.2871 18.501C21.6263 18.501 21.0647 18.0674 20.8721 17.4697Z" fill="black"/>
<path d="M35.7841 14.4428C34.0085 13.9009 32.1865 14.6963 31.7226 16.216L30.1356 21.4149C30.1078 21.4139 30.08 21.4128 30.0521 21.4128H25.6842H25.6724C27.6909 20.241 29.0511 18.0558 29.0511 15.5586V15.527C29.0613 15.5272 29.0713 15.5283 29.0815 15.5283C30.1352 15.5283 30.9924 14.671 30.9924 13.6173C30.9924 12.9957 30.694 12.4427 30.233 12.0935C30.3942 12.0235 30.5071 11.863 30.5071 11.676V10.2201C30.5071 9.96879 30.3034 9.76508 30.0521 9.76508H29.5243C29.4404 8.01076 28.8696 6.47769 27.8585 5.31044C26.8337 4.12734 25.402 3.36078 23.7126 3.08512V2.45499C23.7126 2.20371 23.5089 2 23.2576 2H21.3163C21.0651 2 20.8614 2.20371 20.8614 2.45499V3.08506C19.184 3.3586 17.7608 4.11594 16.7366 5.28611C15.7122 6.45664 15.1341 7.99814 15.0496 9.76514H14.5219C14.2706 9.76514 14.0669 9.96885 14.0669 10.2201V11.6761C14.0669 11.8631 14.1798 12.0236 14.3411 12.0935C13.8801 12.4427 13.5816 12.9958 13.5816 13.6174C13.5816 14.6711 14.4389 15.5283 15.4926 15.5283C15.5027 15.5283 15.5128 15.5272 15.5229 15.5271V15.5587C15.5229 18.0558 16.8832 20.2411 18.9016 21.4128H14.5219C13.2006 21.4128 12.1256 22.4878 12.1256 23.8091V25.7243L9.88958 27.3214C9.77001 27.4069 9.69904 27.5448 9.69904 27.6917V32.0899H9.18338C8.93211 32.0899 8.72839 32.2936 8.72839 32.5449C8.72839 32.7962 8.93211 32.9999 9.18338 32.9999H17.9192C18.1704 32.9999 18.3741 32.7962 18.3741 32.5449C18.3741 32.2936 18.1704 32.0899 17.9192 32.0899H17.4035V27.6917C17.4035 27.5448 17.3325 27.4069 17.213 27.3214L13.8157 24.8948C13.6576 24.7819 13.445 24.7819 13.2868 24.8948L13.0356 25.0743V23.8091C13.0356 22.9896 13.7023 22.3228 14.5219 22.3228H19.1316L21.9084 26.4881C21.9895 26.6098 22.1242 26.6851 22.2703 26.6904C22.2759 26.6906 22.2814 26.6907 22.2869 26.6907C22.427 26.6907 22.5597 26.6261 22.646 26.515L25.9068 22.3228H29.8585L26.7788 32.4121C26.7055 32.6524 26.8408 32.9067 27.0812 32.9801C27.1254 32.9936 27.1702 33.0001 27.2141 33.0001C27.409 33.0001 27.5893 32.8738 27.6492 32.6777L32.0172 18.3678C32.0412 18.4082 32.0659 18.4484 32.092 18.4882C32.5424 19.176 33.2561 19.6969 34.1016 19.9551C34.4775 20.0698 34.8607 20.1269 35.2372 20.1269C35.7074 20.1269 36.167 20.0378 36.5878 19.8606C36.6317 19.8422 36.6746 19.8226 36.717 19.8024L32.8679 32.4122C32.7945 32.6525 32.9299 32.9068 33.1702 32.9802C33.2145 32.9937 33.2592 33.0001 33.3032 33.0001C33.4981 33.0001 33.6784 32.8739 33.7383 32.6778L38.1631 18.182C38.627 16.6622 37.5598 14.9849 35.7841 14.4428ZM13.0356 32.0899V30.088H14.0669V32.0899H13.0356ZM13.5513 25.8242L16.4935 27.9258V32.0899H14.9769V29.633C14.9769 29.3817 14.7732 29.178 14.5219 29.178H12.5806C12.3294 29.178 12.1256 29.3817 12.1256 29.633V32.0899H10.609V27.9258L13.5513 25.8242ZM29.0815 14.6183C29.0714 14.6183 29.0613 14.6174 29.0512 14.6171V12.6177C29.0613 12.6174 29.0714 12.6164 29.0815 12.6164C29.6335 12.6164 30.0825 13.0654 30.0825 13.6174C30.0825 14.1693 29.6335 14.6183 29.0815 14.6183ZM21.7714 2.90998H22.8027V9.76514H21.7714V2.90998ZM20.8614 4.00771V9.76514H15.9611C16.1262 6.70337 17.9627 4.5409 20.8614 4.00771ZM14.9769 10.6751H25.0144C25.2656 10.6751 25.4694 10.4714 25.4694 10.2201C25.4694 9.96885 25.2656 9.76514 25.0144 9.76514H23.7127V4.00753C26.6097 4.5409 28.4475 6.7078 28.613 9.76514H27.214C26.9628 9.76514 26.759 9.96885 26.759 10.2201C26.759 10.4714 26.9628 10.6751 27.214 10.6751H29.5973V11.2211H14.977V10.6751H14.9769ZM15.4926 14.6183C14.9406 14.6183 14.4916 14.1693 14.4916 13.6174C14.4916 13.0654 14.9406 12.6164 15.4926 12.6164C15.5027 12.6164 15.5128 12.6174 15.5229 12.6177V14.6171C15.5128 14.6174 15.5027 14.6183 15.4926 14.6183ZM16.4329 15.5587V12.1311H28.1412V15.5587C28.1412 18.7866 25.515 21.4128 22.287 21.4128C19.0591 21.4128 16.4329 18.7866 16.4329 15.5587ZM22.3154 25.4581L20.2253 22.3228H24.754L22.3154 25.4581ZM36.2347 19.0218C35.6729 19.2584 35.0096 19.2807 34.3673 19.0846C33.725 18.8886 33.1873 18.4997 32.8532 17.9896C32.5363 17.5056 32.4438 16.9702 32.593 16.4816C32.8385 15.6771 33.6797 15.1813 34.6481 15.1813C34.9312 15.1813 35.2253 15.2237 35.5185 15.3131C36.8142 15.7087 37.6101 16.8764 37.2928 17.9162C37.1437 18.4048 36.7679 18.7974 36.2347 19.0218Z" fill="black"/>
<path d="M35.3591 15.8355C34.9022 15.696 34.4293 15.6856 34.0277 15.8063C33.5676 15.9444 33.235 16.2487 33.1152 16.6411C32.9954 17.0334 33.1014 17.4716 33.4059 17.8433C33.6717 18.1676 34.0697 18.423 34.5267 18.5625C34.7791 18.6396 35.029 18.6761 35.266 18.6761C35.9914 18.6761 36.5947 18.3331 36.7706 17.7569C37.0039 16.9923 36.384 16.1483 35.3591 15.8355ZM35.9002 17.4912C35.8388 17.6923 35.3766 17.8706 34.7923 17.6922C34.5095 17.6059 34.2607 17.4507 34.1097 17.2665C34.0341 17.1742 33.9536 17.0484 33.9813 16.9231C34.0049 16.8169 34.1069 16.7514 34.1999 16.7106C34.4762 16.5896 34.812 16.62 35.0934 16.7059C35.6778 16.8842 35.9616 17.2902 35.9002 17.4912Z" fill="black"/>
</g>
<defs>
<clipPath id="clip0">
<rect width="31" height="31" fill="white" transform="translate(8 2)"/>
</clipPath>
</defs>
</svg>
