<svg width="46" height="46" viewBox="0 0 46 46" fill="none" xmlns="http://www.w3.org/2000/svg">
<mask id="mask0" mask-type="alpha" maskUnits="userSpaceOnUse" x="0" y="0" width="46" height="46">
<circle cx="23" cy="23" r="23" fill="#0BCAD4"/>
</mask>
<g mask="url(#mask0)">
<circle cx="23" cy="23" r="23" fill="#0BCAD4"/>
<ellipse cx="23.5" cy="35" rx="12.5" ry="4" fill="#0AA8B0"/>
</g>
<path d="M35.2624 5.73889C35.2624 5.73889 35.6887 7.07402 36.916 7.13604C36.916 7.13604 35.2777 7.61328 35.25 8.6339C35.25 8.6339 34.9275 7.20248 33.6335 7.15112C33.6335 7.15112 35.1407 6.95853 35.2624 5.73889Z" fill="#D7E057"/>
<path d="M35.2497 8.79196C35.1606 8.79196 35.0828 8.73859 35.0657 8.6636C35.0627 8.65052 34.7537 7.354 33.6246 7.30917C33.5283 7.30527 33.4511 7.24051 33.4461 7.1593C33.4411 7.07798 33.5099 7.0069 33.6052 6.99466C33.6603 6.98739 34.9677 6.80303 35.0753 5.72556C35.0829 5.64909 35.1546 5.58834 35.2452 5.58138C35.3351 5.57495 35.4193 5.62336 35.4431 5.6975C35.4471 5.70974 35.8506 6.92368 36.9268 6.978C37.0161 6.98253 37.0891 7.03959 37.1013 7.11426C37.1136 7.18894 37.0614 7.26066 36.9769 7.28544C36.9618 7.28987 35.4613 7.74001 35.4371 8.63744C35.4348 8.71834 35.3608 8.78468 35.2653 8.79132C35.2602 8.79185 35.2549 8.79196 35.2497 8.79196ZM34.2816 7.13304C34.7666 7.34081 35.0607 7.73917 35.2304 8.06939C35.4838 7.6452 35.9736 7.35347 36.3497 7.1805C35.8326 6.98612 35.5013 6.58428 35.3073 6.26039C35.0832 6.72023 34.6482 6.98486 34.2816 7.13304Z" fill="#3A312A"/>
<path d="M32.5486 7.52979C32.5486 7.52979 32.8501 8.47415 33.7182 8.51792C33.7182 8.51792 32.5594 8.85553 32.5399 9.57736C32.5399 9.57736 32.3117 8.56486 31.3965 8.52857C31.3965 8.52857 32.4625 8.39241 32.5486 7.52979Z" fill="#D7E057"/>
<path d="M32.5396 9.73556C32.4505 9.73556 32.3726 9.68209 32.3556 9.60689C32.3536 9.59824 32.1425 8.71652 31.3876 8.68657C31.2912 8.68267 31.2141 8.61791 31.2091 8.5367C31.2042 8.45549 31.273 8.3843 31.3684 8.37217C31.4054 8.36721 32.2894 8.24107 32.3617 7.5165C32.3694 7.43993 32.4411 7.37908 32.5317 7.37222C32.6232 7.36536 32.7057 7.41441 32.7295 7.48845C32.7321 7.49678 33.0081 8.32365 33.7292 8.36015C33.8186 8.36468 33.8916 8.42174 33.9037 8.49652C33.916 8.57129 33.8637 8.64291 33.7792 8.66759C33.7691 8.67054 32.7434 8.97904 32.7271 9.58105C32.7249 9.66195 32.6507 9.7285 32.5551 9.73514C32.5501 9.73546 32.5449 9.73556 32.5396 9.73556ZM31.9745 8.51983C32.2381 8.66042 32.4151 8.87789 32.5307 9.07681C32.7029 8.84129 32.9704 8.66833 33.2017 8.55231C32.9156 8.41836 32.7159 8.19888 32.5837 8.00124C32.437 8.24244 32.2066 8.40993 31.9745 8.51983Z" fill="#3A312A"/>
<path d="M32.5486 4.71826C32.5486 4.71826 32.8501 5.66263 33.7182 5.7065C33.7182 5.7065 32.5594 6.04411 32.5399 6.76594C32.5399 6.76594 32.3117 5.75344 31.3965 5.71716C31.3965 5.71716 32.4625 5.58089 32.5486 4.71826Z" fill="#D7E057"/>
<path d="M32.5396 6.92413C32.4505 6.92413 32.3726 6.87066 32.3556 6.79546C32.3536 6.78681 32.1425 5.90509 31.3876 5.87514C31.2912 5.87123 31.2141 5.80648 31.2091 5.72526C31.2042 5.64395 31.273 5.57286 31.3684 5.56073C31.4054 5.55578 32.2894 5.42964 32.3617 4.70496C32.3694 4.62839 32.4411 4.56753 32.5317 4.56068C32.6232 4.55393 32.7057 4.60287 32.7295 4.6768C32.7321 4.68513 33.0081 5.51201 33.7292 5.5485C33.8186 5.55303 33.8916 5.61009 33.9037 5.68487C33.916 5.75965 33.8637 5.83126 33.7792 5.85594C33.7691 5.85889 32.7434 6.16739 32.7271 6.76951C32.7249 6.85041 32.6507 6.91685 32.5551 6.9236C32.5501 6.92402 32.5449 6.92413 32.5396 6.92413ZM31.9745 5.70828C32.2381 5.84887 32.4151 6.06635 32.5307 6.26526C32.7029 6.02975 32.9704 5.85678 33.2017 5.74066C32.9156 5.60682 32.7159 5.38724 32.5837 5.18959C32.437 5.4309 32.2066 5.59849 31.9745 5.70828Z" fill="#3A312A"/>
<path d="M25.004 12.4013C25.3652 12.7641 25.584 13.2313 25.584 13.7418C25.584 14.7954 24.6577 15.6666 23.4552 15.8068C23.6652 15.1804 23.7827 14.5697 23.7827 14.0139C23.7827 11.0101 20.8952 8.57591 17.334 8.57591C13.7727 8.57591 10.8852 11.0101 10.8852 14.0139C10.8852 14.5697 11.0077 15.1814 11.2252 15.8079C10.0165 15.6729 9.08398 14.7996 9.08398 13.7418C9.08398 13.2313 9.30148 12.7641 9.66398 12.4013C9.30273 12.0406 9.08398 11.5744 9.08398 11.065C9.08398 10.0061 10.0252 9.13489 11.239 9.00833C11.1902 8.84485 11.1602 8.67505 11.1602 8.49786C11.1602 7.35247 12.2615 6.42435 13.6177 6.42435C14.0815 6.42435 14.5127 6.53403 14.8815 6.72177C14.9427 5.62278 16.0152 4.74634 17.334 4.74634C18.6515 4.74634 19.7252 5.62278 19.7852 6.72177C20.1552 6.53403 20.5865 6.42435 21.049 6.42435C22.4065 6.42435 23.5065 7.35247 23.5065 8.49786C23.5065 8.67505 23.4777 8.84485 23.4277 9.00833C24.6427 9.13489 25.584 10.0061 25.584 11.065C25.584 11.5744 25.3652 12.0406 25.004 12.4013Z" fill="#87796F"/>
<path d="M11.2252 15.966C11.2171 15.966 11.2089 15.9656 11.2006 15.9646C9.88698 15.8179 8.89648 14.8623 8.89648 13.7417C8.89648 13.2579 9.08298 12.7869 9.42461 12.4013C9.08311 12.0166 8.89648 11.5469 8.89648 11.0649C8.89648 9.99879 9.79348 9.08775 11.0141 8.87892C10.9864 8.74919 10.9727 8.62326 10.9727 8.49776C10.9727 7.26715 12.1592 6.26604 13.6177 6.26604C14.0001 6.26604 14.3772 6.3367 14.7232 6.47191C14.9215 5.39782 16.0175 4.58813 17.334 4.58813C18.6511 4.58813 19.7466 5.39792 19.9437 6.47212C20.2905 6.33681 20.6675 6.26614 21.049 6.26614C22.5074 6.26614 23.694 7.26725 23.694 8.49786C23.694 8.62369 23.6802 8.7513 23.653 8.87913C24.8742 9.08785 25.7715 9.99889 25.7715 11.065C25.7715 11.5471 25.5849 12.0168 25.2432 12.4016C25.5849 12.7881 25.7715 13.2591 25.7715 13.7418C25.7715 14.856 24.7867 15.8113 23.481 15.9636C23.4181 15.9708 23.3555 15.951 23.3139 15.9107C23.2724 15.8704 23.2576 15.8152 23.2749 15.7638C23.4875 15.1294 23.5952 14.5407 23.5952 14.0139C23.5952 11.1026 20.7865 8.73411 17.334 8.73411C13.8815 8.73411 11.0727 11.1026 11.0727 14.0139C11.0727 14.5393 11.1846 15.1279 11.4051 15.7634C11.423 15.8148 11.4087 15.8702 11.3675 15.9107C11.3317 15.9461 11.2796 15.966 11.2252 15.966ZM13.6177 6.58244C12.366 6.58244 11.3477 7.44159 11.3477 8.49776C11.3477 8.65037 11.3716 8.80467 11.4209 8.96962C11.434 9.0136 11.4241 9.06022 11.3937 9.09766C11.3634 9.1351 11.3155 9.15968 11.2621 9.16527C10.1272 9.2836 9.27161 10.1002 9.27161 11.0649C9.27161 11.5157 9.46186 11.9541 9.80736 12.2991C9.86636 12.358 9.86648 12.4442 9.80748 12.5031C9.46186 12.849 9.27161 13.2889 9.27161 13.7417C9.27161 14.6208 9.98123 15.3818 10.9635 15.603C10.7871 15.0328 10.6979 14.4992 10.6979 14.0138C10.6979 10.9281 13.6749 8.4176 17.3341 8.4176C20.9934 8.4176 23.9704 10.9281 23.9704 14.0138C23.9704 14.4993 23.8844 15.0323 23.7147 15.6008C24.6912 15.3759 25.3966 14.6158 25.3966 13.7416C25.3966 13.2899 25.2062 12.8499 24.8605 12.5028C24.8017 12.4439 24.8019 12.3578 24.8609 12.299C25.2064 11.954 25.3966 11.5156 25.3966 11.0648C25.3966 10.1001 24.5404 9.28339 23.4049 9.16516C23.3512 9.15957 23.3032 9.13479 23.2729 9.09713C23.2425 9.05948 23.2329 9.01265 23.2462 8.96857C23.2952 8.80847 23.319 8.65438 23.319 8.49765C23.319 7.44149 22.3007 6.58234 21.049 6.58234C20.6397 6.58234 20.2361 6.67737 19.8819 6.85719C19.8252 6.88588 19.7549 6.88735 19.6967 6.86109C19.6385 6.83472 19.601 6.78452 19.598 6.72894C19.5421 5.70589 18.5477 4.90444 17.3341 4.90444C16.121 4.90444 15.1259 5.70589 15.0689 6.72904C15.0657 6.78473 15.0281 6.83494 14.9699 6.8612C14.9116 6.88746 14.8414 6.88588 14.7847 6.85708C14.4317 6.67747 14.0282 6.58244 13.6177 6.58244Z" fill="#3A312A"/>
<path d="M14.8857 28.2809H25.5261V25.4556C25.5261 23.7336 23.871 22.338 21.8291 22.338H19.3866V20.9993C18.711 21.3942 18.012 21.6272 17.3336 21.6272C16.6829 21.6272 15.9962 21.3919 15.3235 20.9922H15.282V22.3379H12.8381C10.7962 22.3379 9.14111 23.7336 9.14111 25.4555V28.2808H13.3229H14.8857V28.2809Z" fill="#FAE6CA"/>
<path d="M25.5261 28.4391H14.8857C14.7821 28.4391 14.6982 28.3684 14.6982 28.2809C14.6982 28.1935 14.7821 28.1227 14.8857 28.1227H25.3386V25.4556C25.3386 23.8238 23.7642 22.4962 21.8291 22.4962H19.3866C19.283 22.4962 19.1991 22.4254 19.1991 22.338V21.2907C18.5574 21.6191 17.9311 21.7854 17.3337 21.7854C16.746 21.7854 16.1201 21.6105 15.4696 21.2646V22.338C15.4696 22.4254 15.3857 22.4962 15.2821 22.4962H12.8381C10.903 22.4962 9.32861 23.8238 9.32861 25.4556V28.1227H13.3229C13.4265 28.1227 13.5104 28.1935 13.5104 28.2809C13.5104 28.3684 13.4265 28.4391 13.3229 28.4391H9.14111C9.03749 28.4391 8.95361 28.3684 8.95361 28.2809V25.4556C8.95361 23.6494 10.6961 22.1798 12.8381 22.1798H15.0946V20.9923C15.0946 20.9049 15.1785 20.8341 15.2821 20.8341H15.3235C15.3621 20.8341 15.3999 20.8442 15.4314 20.8629C16.1085 21.2652 16.7486 21.469 17.3336 21.469C17.9442 21.469 18.599 21.2672 19.2797 20.8692C19.3372 20.8357 19.4117 20.8319 19.4735 20.8591C19.5354 20.8864 19.574 20.9404 19.574 20.9993V22.1798H21.8291C23.971 22.1798 25.7136 23.6494 25.7136 25.4556V28.2809C25.7136 28.3684 25.6297 28.4391 25.5261 28.4391Z" fill="#3A312A"/>
<path d="M14.8857 28.2813H25.5262V25.4548C25.5262 23.7328 23.8711 22.337 21.8292 22.337H21.2449L21.2601 22.3463L18.7195 25.188L17.4084 24.355L16.0972 25.188L13.5566 22.3463L13.5717 22.337H12.8381C10.7962 22.337 9.14111 23.7328 9.14111 25.4548V28.2813H13.3227H14.8857Z" fill="#8AC5DC"/>
<path d="M25.5261 28.4395H14.8857C14.7821 28.4395 14.6982 28.3687 14.6982 28.2813C14.6982 28.1938 14.7821 28.1231 14.8857 28.1231H25.3387V25.4548C25.3387 23.8229 23.7644 22.4952 21.8292 22.4952H21.3617L18.869 25.2833C18.8067 25.353 18.6892 25.3668 18.6065 25.3144L17.4082 24.553L16.21 25.3144C16.1272 25.3669 16.0097 25.3531 15.9475 25.2833L13.4549 22.4952H12.8381C10.903 22.4952 9.32861 23.8229 9.32861 25.4548V28.1231H13.3229C13.4265 28.1231 13.5104 28.1938 13.5104 28.2813C13.5104 28.3687 13.4265 28.4395 13.3229 28.4395H9.14111C9.03749 28.4395 8.95361 28.3687 8.95361 28.2813V25.4548C8.95361 23.6484 10.6961 22.1788 12.8381 22.1788H13.5717C13.6529 22.1788 13.7249 22.2228 13.75 22.288C13.7524 22.294 13.7542 22.3001 13.7556 22.3063L16.134 24.9666L17.2955 24.2286C17.3622 24.1861 17.4544 24.1862 17.5211 24.2286L18.6825 24.9666L21.0609 22.3065C21.0624 22.3003 21.0641 22.2942 21.0665 22.2882C21.0916 22.223 21.1636 22.1789 21.2449 22.1789H21.8292C23.9711 22.1789 25.7137 23.6485 25.7137 25.4549V28.2814C25.7136 28.3686 25.6297 28.4395 25.5261 28.4395Z" fill="#3A312A"/>
<path d="M18.1346 26.0226L18.7178 28.2817H16.104L16.6871 26.0226H18.1346Z" fill="#EF6D7A"/>
<path d="M18.7178 28.4399H16.104C16.0473 28.4399 15.9936 28.4182 15.958 28.381C15.9224 28.3436 15.9088 28.2949 15.9208 28.2481L16.5039 25.9889C16.5226 25.9163 16.5989 25.8644 16.6871 25.8644H18.1346C18.2229 25.8644 18.299 25.9163 18.3179 25.9889L18.901 28.2481C18.913 28.2949 18.8994 28.3437 18.8638 28.381C18.8281 28.4182 18.7745 28.4399 18.7178 28.4399ZM16.3368 28.1235H18.485L17.9835 26.1808H16.8381L16.3368 28.1235Z" fill="#3A312A"/>
<path d="M18.1351 26.0225L18.7183 25.1873L17.4083 24.355L16.1036 25.184L16.6868 26.0225H18.1351Z" fill="#EF6D7A"/>
<path d="M18.1351 26.1807H16.6868C16.6203 26.1807 16.5588 26.151 16.525 26.1026L15.9419 25.264C15.8938 25.1947 15.9148 25.1059 15.9909 25.0575L17.2956 24.2285C17.3624 24.186 17.4545 24.1861 17.5213 24.2285L18.8311 25.0609C18.9073 25.1093 18.9283 25.1982 18.8799 25.2675L18.2968 26.1027C18.263 26.1511 18.2015 26.1807 18.1351 26.1807ZM16.7941 25.8643H18.028L18.4718 25.2287L17.4084 24.553L16.35 25.2255L16.7941 25.8643Z" fill="#3A312A"/>
<path fill-rule="evenodd" clip-rule="evenodd" d="M12.4401 14.6094C12.4401 15.2869 11.7889 15.8361 10.9854 15.8361C10.182 15.8361 9.53076 15.2868 9.53076 14.6094C9.53076 13.9318 10.182 13.3826 10.9854 13.3826C11.7889 13.3827 12.4401 13.9318 12.4401 14.6094Z" fill="#FAE6CA"/>
<path d="M10.9855 15.9943C10.08 15.9943 9.34338 15.373 9.34338 14.6094C9.34338 13.8458 10.0801 13.2244 10.9855 13.2244C11.891 13.2244 12.6278 13.8457 12.6278 14.6094C12.6278 15.3731 11.891 15.9943 10.9855 15.9943ZM10.9855 13.5407C10.2868 13.5407 9.71838 14.02 9.71838 14.6093C9.71838 15.1984 10.2868 15.6778 10.9855 15.6778C11.6843 15.6778 12.2528 15.1984 12.2528 14.6093C12.2526 14.02 11.6843 13.5407 10.9855 13.5407Z" fill="#3A312A"/>
<path d="M25.1362 14.6113C25.1378 13.9338 24.4878 13.3835 23.6843 13.3822C22.8809 13.3808 22.2283 13.9289 22.2267 14.6064C22.2251 15.2839 22.8751 15.8342 23.6785 15.8356C24.4819 15.8369 25.1346 15.2888 25.1362 14.6113Z" fill="#FAE6CA"/>
<path d="M23.6822 15.9943C22.7767 15.9943 22.0399 15.373 22.0399 14.6094C22.0399 13.8458 22.7767 13.2244 23.6822 13.2244C24.5877 13.2244 25.3243 13.8457 25.3243 14.6094C25.3243 15.3731 24.5877 15.9943 23.6822 15.9943ZM23.6822 13.5407C22.9834 13.5407 22.4149 14.02 22.4149 14.6093C22.4149 15.1984 22.9834 15.6778 23.6822 15.6778C24.3809 15.6778 24.9493 15.1984 24.9493 14.6093C24.9494 14.02 24.3809 13.5407 23.6822 13.5407Z" fill="#3A312A"/>
<path d="M23.7826 14.0138C23.7826 17.0173 20.3525 21.6274 17.3339 21.6274C14.4525 21.6274 10.8851 17.0173 10.8851 14.0138C10.8851 11.0103 13.7724 8.57556 17.3339 8.57556C20.8955 8.57556 23.7826 11.0103 23.7826 14.0138Z" fill="#FAE6CA"/>
<path d="M17.3339 21.7856C15.952 21.7856 14.285 20.758 12.8748 19.0369C11.5319 17.398 10.6976 15.4732 10.6976 14.0138C10.6976 10.9279 13.6746 8.41736 17.3339 8.41736C20.9931 8.41736 23.9701 10.9279 23.9701 14.0138C23.9701 15.4899 23.1559 17.4143 21.8451 19.0361C20.433 20.7835 18.7886 21.7856 17.3339 21.7856ZM17.3339 8.73376C13.8814 8.73376 11.0726 11.1024 11.0726 14.0138C11.0726 15.4125 11.8814 17.2682 13.1833 18.857C14.5235 20.4927 16.0751 21.4692 17.3339 21.4692C18.6433 21.4692 20.2138 20.493 21.5354 18.8578C22.8059 17.2857 23.5951 15.4297 23.5951 14.0138C23.5951 11.1024 20.7863 8.73376 17.3339 8.73376Z" fill="#3A312A"/>
<path d="M15.0571 14.4833C15.4047 14.4833 15.6865 14.2456 15.6865 13.9525C15.6865 13.6593 15.4047 13.4216 15.0571 13.4216C14.7095 13.4216 14.4277 13.6593 14.4277 13.9525C14.4277 14.2456 14.7095 14.4833 15.0571 14.4833Z" fill="#3A312A"/>
<path d="M20.2401 13.9525C20.2401 14.2457 19.9583 14.4833 19.6106 14.4833C19.263 14.4833 18.9812 14.2457 18.9812 13.9525C18.9812 13.6594 19.263 13.4216 19.6106 13.4216C19.9582 13.4216 20.2401 13.6593 20.2401 13.9525Z" fill="#3A312A"/>
<path d="M14.8833 15.5305C14.8833 15.9079 14.3978 16.214 13.7991 16.214C13.2003 16.214 12.7148 15.9079 12.7148 15.5305C12.7148 15.1529 13.2002 14.8469 13.7991 14.8469C14.398 14.8469 14.8833 15.153 14.8833 15.5305Z" fill="#F59689"/>
<path d="M21.9529 15.5305C21.9529 15.9079 21.4676 16.214 20.8687 16.214C20.2698 16.214 19.7844 15.9079 19.7844 15.5305C19.7844 15.1529 20.2698 14.8469 20.8687 14.8469C21.4676 14.8469 21.9529 15.153 21.9529 15.5305Z" fill="#F59689"/>
<path d="M13.5674 22.3477L14.8843 21.5104L17.4239 24.3545L16.107 25.1917L13.5674 22.3477Z" fill="#87796F"/>
<path d="M16.0972 25.3462C16.0403 25.3462 15.9842 25.3245 15.9473 25.2832L13.4074 22.4413C13.3774 22.4077 13.3646 22.3655 13.3714 22.324C13.3783 22.2824 13.4046 22.2449 13.4443 22.2196L14.7609 21.3828C14.8434 21.3303 14.9611 21.3442 15.0234 21.4139L17.5632 24.256C17.5932 24.2894 17.6061 24.3316 17.5992 24.3731C17.5923 24.4147 17.5661 24.4522 17.5263 24.4775L16.2098 25.3143C16.1761 25.3358 16.1364 25.3462 16.0972 25.3462ZM13.8198 22.3771L16.1339 24.9665L17.1509 24.3201L14.8369 21.7307L13.8198 22.3771Z" fill="#3A312A"/>
<path d="M18.7246 25.1805L17.4077 24.3433L19.9473 21.4993L21.2642 22.3365L18.7246 25.1805Z" fill="#87796F"/>
<path d="M18.7193 25.3462C18.6801 25.3462 18.6404 25.3358 18.6067 25.3143L17.2902 24.4775C17.2504 24.4522 17.2242 24.4147 17.2173 24.3731C17.2103 24.3316 17.2233 24.2894 17.2533 24.2558L19.7932 21.4138C19.8556 21.3441 19.9733 21.3301 20.0557 21.3827L21.3722 22.2194C21.4119 22.2448 21.4382 22.2823 21.4451 22.3239C21.4521 22.3654 21.4391 22.4076 21.4091 22.4411L18.8692 25.2832C18.8323 25.3244 18.7761 25.3462 18.7193 25.3462ZM17.6656 24.3201L18.6826 24.9665L20.9967 22.3771L19.9797 21.7307L17.6656 24.3201Z" fill="#3A312A"/>
<path d="M12.2102 28.4395C12.1066 28.4395 12.0227 28.3688 12.0227 28.2813V26.0483C12.0227 25.9609 12.1066 25.8901 12.2102 25.8901C12.3138 25.8901 12.3977 25.9609 12.3977 26.0483V28.2813C12.3977 28.3687 12.3138 28.4395 12.2102 28.4395Z" fill="#3A312A"/>
<path d="M22.6063 28.4395C22.5027 28.4395 22.4188 28.3688 22.4188 28.2813V26.0483C22.4188 25.9609 22.5027 25.8901 22.6063 25.8901C22.7099 25.8901 22.7938 25.9609 22.7938 26.0483V28.2813C22.7938 28.3687 22.7098 28.4395 22.6063 28.4395Z" fill="#3A312A"/>
<path d="M17.3335 18.5833C16.423 18.5833 15.7665 18.2383 15.3824 17.5577C15.3379 17.4788 15.3775 17.3844 15.471 17.3469C15.5645 17.3092 15.6764 17.3428 15.7209 17.4216C16.042 17.9904 16.5695 18.2669 17.3335 18.2669C18.3115 18.2669 18.8119 17.7222 18.9399 17.4342C18.9763 17.3524 19.0848 17.3111 19.1813 17.3416C19.2783 17.3723 19.3274 17.4635 19.291 17.5453C19.069 18.0452 18.3616 18.5833 17.3335 18.5833Z" fill="#3A312A"/>
<path d="M22.2974 27.536C22.2974 27.9475 22.6929 28.2812 23.1806 28.2812H36.0327C36.5205 28.2812 36.916 27.9476 36.916 27.536V19.5682C36.916 19.1567 36.5206 18.823 36.0327 18.823H23.1806C22.6929 18.823 22.2974 19.1566 22.2974 19.5682V27.536Z" fill="#F4E0C4"/>
<path d="M36.0327 28.4394H23.1806C22.5902 28.4394 22.1099 28.0342 22.1099 27.5361V19.5684C22.1099 19.0702 22.5902 18.6649 23.1806 18.6649H36.0326C36.623 18.6649 37.1034 19.0702 37.1034 19.5684V27.5361C37.1035 28.0341 36.6231 28.4394 36.0327 28.4394ZM23.1806 18.9812C22.797 18.9812 22.4849 19.2446 22.4849 19.5683V27.536C22.4849 27.8597 22.797 28.1229 23.1806 28.1229H36.0326C36.4162 28.1229 36.7284 27.8596 36.7284 27.536V19.5683C36.7284 19.2446 36.4162 18.9812 36.0326 18.9812H23.1806Z" fill="#3A312A"/>
<path d="M30.5129 20.4823H36.916V19.5682C36.916 19.1567 36.5206 18.823 36.0327 18.823H23.1806C22.6929 18.823 22.2974 19.1566 22.2974 19.5682V20.4823H28.9457H30.5129Z" fill="#87796F"/>
<path d="M36.916 20.6405H30.5129C30.4092 20.6405 30.3254 20.5698 30.3254 20.4823C30.3254 20.3949 30.4092 20.3241 30.5129 20.3241H36.7285V19.5682C36.7285 19.2446 36.4164 18.9812 36.0327 18.9812H23.1806C22.797 18.9812 22.4849 19.2446 22.4849 19.5682V20.3241H28.9459C29.0495 20.3241 29.1334 20.3949 29.1334 20.4823C29.1334 20.5698 29.0495 20.6405 28.9459 20.6405H22.2974C22.1937 20.6405 22.1099 20.5698 22.1099 20.4823V19.5682C22.1099 19.0701 22.5902 18.6648 23.1806 18.6648H36.0326C36.623 18.6648 37.1034 19.0701 37.1034 19.5682V20.4823C37.1035 20.5697 37.0195 20.6405 36.916 20.6405Z" fill="#3A312A"/>
<path d="M31.7781 22.7706H30.8548C30.6481 22.7706 30.4806 22.6293 30.4806 22.4549V21.6758C30.4806 21.5013 30.6481 21.36 30.8548 21.36H31.7782C31.985 21.36 32.1525 21.5014 32.1525 21.6758V22.4549C32.1523 22.6292 31.9848 22.7706 31.7781 22.7706Z" fill="#D4DA55"/>
<path d="M31.7782 22.9289H30.8548C30.5451 22.9289 30.2931 22.7162 30.2931 22.4549V21.6759C30.2931 21.4145 30.5451 21.2019 30.8548 21.2019H31.7782C32.088 21.2019 32.34 21.4145 32.34 21.6759V22.4549C32.34 22.7161 32.088 22.9289 31.7782 22.9289ZM30.8548 21.5182C30.7518 21.5182 30.6681 21.5889 30.6681 21.6758V22.4548C30.6681 22.5417 30.7518 22.6123 30.8548 22.6123H31.7782C31.8812 22.6123 31.965 22.5417 31.965 22.4548V21.6758C31.965 21.5889 31.8812 21.5182 31.7782 21.5182H30.8548Z" fill="#3A312A"/>
<path d="M24.9389 22.7706H24.0156C23.8089 22.7706 23.6414 22.6293 23.6414 22.4549V21.6758C23.6414 21.5013 23.8089 21.36 24.0156 21.36H24.9389C25.1456 21.36 25.3131 21.5014 25.3131 21.6758V22.4549C25.3131 22.6292 25.1455 22.7706 24.9389 22.7706Z" fill="#D4DA55"/>
<path d="M24.9389 22.9289H24.0156C23.7059 22.9289 23.4539 22.7162 23.4539 22.4549V21.6759C23.4539 21.4145 23.7059 21.2019 24.0156 21.2019H24.9389C25.2486 21.2019 25.5006 21.4145 25.5006 21.6759V22.4549C25.5006 22.7161 25.2486 22.9289 24.9389 22.9289ZM24.0155 21.5182C23.9125 21.5182 23.8287 21.5889 23.8287 21.6758V22.4548C23.8287 22.5417 23.9125 22.6123 24.0155 22.6123H24.9387C25.0417 22.6123 25.1255 22.5417 25.1255 22.4548V21.6758C25.1255 21.5889 25.0417 21.5182 24.9387 21.5182H24.0155Z" fill="#3A312A"/>
<path d="M28.3585 22.7706H27.4352C27.2284 22.7706 27.0609 22.6293 27.0609 22.4549V21.6758C27.0609 21.5013 27.2284 21.36 27.4352 21.36H28.3585C28.5653 21.36 28.7328 21.5014 28.7328 21.6758V22.4549C28.7328 22.6292 28.5653 22.7706 28.3585 22.7706Z" fill="#D4DA55"/>
<path d="M28.3585 22.9289H27.4353C27.1255 22.9289 26.8735 22.7162 26.8735 22.4549V21.6759C26.8735 21.4145 27.1255 21.2019 27.4353 21.2019H28.3585C28.6683 21.2019 28.9203 21.4145 28.9203 21.6759V22.4549C28.9203 22.7161 28.6683 22.9289 28.3585 22.9289ZM27.4353 21.5182C27.3323 21.5182 27.2485 21.5889 27.2485 21.6758V22.4548C27.2485 22.5417 27.3323 22.6123 27.4353 22.6123H28.3585C28.4615 22.6123 28.5453 22.5417 28.5453 22.4548V21.6758C28.5453 21.5889 28.4615 21.5182 28.3585 21.5182H27.4353Z" fill="#3A312A"/>
<path d="M35.1979 22.7706H34.2745C34.0678 22.7706 33.9003 22.6293 33.9003 22.4549V21.6758C33.9003 21.5013 34.0678 21.36 34.2745 21.36H35.1978C35.4045 21.36 35.572 21.5014 35.572 21.6758V22.4549C35.5721 22.6292 35.4045 22.7706 35.1979 22.7706Z" fill="#D4DA55"/>
<path d="M35.1978 22.9288H34.2745C33.9648 22.9288 33.7128 22.7162 33.7128 22.4549V21.6758C33.7128 21.4144 33.9648 21.2018 34.2745 21.2018H35.1978C35.5075 21.2018 35.7595 21.4144 35.7595 21.6758V22.4548C35.7596 22.7161 35.5075 22.9288 35.1978 22.9288ZM34.2745 21.5182C34.1715 21.5182 34.0878 21.5889 34.0878 21.6758V22.4549C34.0878 22.5418 34.1716 22.6124 34.2745 22.6124H35.1978C35.3008 22.6124 35.3845 22.5418 35.3845 22.4549V21.6759C35.3845 21.589 35.3008 21.5183 35.1978 21.5183H34.2745V21.5182Z" fill="#3A312A"/>
<path d="M24.9389 25.0938H24.0156C23.8089 25.0938 23.6414 24.9524 23.6414 24.778V23.999C23.6414 23.8246 23.8089 23.6832 24.0156 23.6832H24.9389C25.1456 23.6832 25.3131 23.8246 25.3131 23.999V24.778C25.3131 24.9523 25.1455 25.0938 24.9389 25.0938Z" fill="#D4DA55"/>
<path d="M24.9389 25.252H24.0156C23.7059 25.252 23.4539 25.0393 23.4539 24.778V23.9989C23.4539 23.7375 23.7059 23.5249 24.0156 23.5249H24.9389C25.2486 23.5249 25.5006 23.7375 25.5006 23.9989V24.778C25.5006 25.0393 25.2486 25.252 24.9389 25.252ZM24.0155 23.8413C23.9125 23.8413 23.8287 23.912 23.8287 23.9989V24.778C23.8287 24.8649 23.9125 24.9355 24.0155 24.9355H24.9387C25.0417 24.9355 25.1255 24.8649 25.1255 24.778V23.9989C25.1255 23.912 25.0417 23.8413 24.9387 23.8413H24.0155Z" fill="#3A312A"/>
<path d="M28.3585 25.0938H27.4352C27.2284 25.0938 27.0609 24.9524 27.0609 24.778V23.999C27.0609 23.8246 27.2284 23.6832 27.4352 23.6832H28.3585C28.5653 23.6832 28.7328 23.8246 28.7328 23.999V24.778C28.7328 24.9523 28.5653 25.0938 28.3585 25.0938Z" fill="#D4DA55"/>
<path d="M28.3585 25.252H27.4353C27.1255 25.252 26.8735 25.0393 26.8735 24.778V23.9989C26.8735 23.7375 27.1255 23.5249 27.4353 23.5249H28.3585C28.6683 23.5249 28.9203 23.7375 28.9203 23.9989V24.778C28.9203 25.0393 28.6683 25.252 28.3585 25.252ZM27.4353 23.8413C27.3323 23.8413 27.2485 23.912 27.2485 23.9989V24.778C27.2485 24.8649 27.3323 24.9355 27.4353 24.9355H28.3585C28.4615 24.9355 28.5453 24.8649 28.5453 24.778V23.9989C28.5453 23.912 28.4615 23.8413 28.3585 23.8413H27.4353Z" fill="#3A312A"/>
<path d="M31.7781 25.0938H30.8548C30.6481 25.0938 30.4806 24.9524 30.4806 24.778V23.999C30.4806 23.8246 30.6481 23.6832 30.8548 23.6832H31.7781C31.9848 23.6832 32.1523 23.8246 32.1523 23.999V24.778C32.1523 24.9523 31.9848 25.0938 31.7781 25.0938Z" fill="#D4DA55"/>
<path d="M31.7782 25.252H30.8548C30.5451 25.252 30.2931 25.0393 30.2931 24.778V23.9989C30.2931 23.7375 30.5451 23.5249 30.8548 23.5249H31.7782C32.088 23.5249 32.34 23.7375 32.34 23.9989V24.778C32.34 25.0393 32.088 25.252 31.7782 25.252ZM30.8548 23.8413C30.7518 23.8413 30.6681 23.912 30.6681 23.9989V24.778C30.6681 24.8649 30.7518 24.9355 30.8548 24.9355H31.7782C31.8812 24.9355 31.965 24.8649 31.965 24.778V23.9989C31.965 23.912 31.8812 23.8413 31.7782 23.8413H30.8548Z" fill="#3A312A"/>
<path d="M35.1979 25.0938H34.2745C34.0678 25.0938 33.9003 24.9524 33.9003 24.778V23.9989C33.9003 23.8244 34.0678 23.6831 34.2745 23.6831H35.1978C35.4045 23.6831 35.572 23.8244 35.572 23.9989V24.7779C35.5721 24.9523 35.4045 25.0938 35.1979 25.0938Z" fill="#D4DA55"/>
<path d="M35.1978 25.252H34.2745C33.9648 25.252 33.7128 25.0393 33.7128 24.778V23.9989C33.7128 23.7375 33.9648 23.5249 34.2745 23.5249H35.1978C35.5075 23.5249 35.7595 23.7375 35.7595 23.9989V24.778C35.7596 25.0393 35.5075 25.252 35.1978 25.252ZM34.2745 23.8413C34.1715 23.8413 34.0878 23.912 34.0878 23.9989V24.778C34.0878 24.8649 34.1716 24.9355 34.2745 24.9355H35.1978C35.3008 24.9355 35.3845 24.8649 35.3845 24.778V23.9989C35.3845 23.912 35.3008 23.8413 35.1978 23.8413H34.2745Z" fill="#3A312A"/>
<path d="M24.9389 27.4169H24.0156C23.8089 27.4169 23.6414 27.2756 23.6414 27.1011V26.3221C23.6414 26.1477 23.8089 26.0063 24.0156 26.0063H24.9389C25.1456 26.0063 25.3131 26.1477 25.3131 26.3221V27.1011C25.3131 27.2755 25.1455 27.4169 24.9389 27.4169Z" fill="#D4DA55"/>
<path d="M24.9389 27.5751H24.0156C23.7059 27.5751 23.4539 27.3625 23.4539 27.1011V26.3221C23.4539 26.0608 23.7059 25.8481 24.0156 25.8481H24.9389C25.2486 25.8481 25.5006 26.0608 25.5006 26.3221V27.1011C25.5006 27.3625 25.2486 27.5751 24.9389 27.5751ZM24.0155 26.1644C23.9125 26.1644 23.8287 26.2351 23.8287 26.322V27.101C23.8287 27.1879 23.9125 27.2586 24.0155 27.2586H24.9387C25.0417 27.2586 25.1255 27.1879 25.1255 27.101V26.322C25.1255 26.2351 25.0417 26.1644 24.9387 26.1644H24.0155Z" fill="#3A312A"/>
<path d="M28.3585 27.4169H27.4352C27.2284 27.4169 27.0609 27.2756 27.0609 27.1011V26.3221C27.0609 26.1477 27.2284 26.0063 27.4352 26.0063H28.3585C28.5653 26.0063 28.7328 26.1477 28.7328 26.3221V27.1011C28.7328 27.2755 28.5653 27.4169 28.3585 27.4169Z" fill="#D4DA55"/>
<path d="M28.3585 27.5751H27.4353C27.1255 27.5751 26.8735 27.3625 26.8735 27.1011V26.3221C26.8735 26.0608 27.1255 25.8481 27.4353 25.8481H28.3585C28.6683 25.8481 28.9203 26.0608 28.9203 26.3221V27.1011C28.9203 27.3625 28.6683 27.5751 28.3585 27.5751ZM27.4353 26.1644C27.3323 26.1644 27.2485 26.2351 27.2485 26.322V27.101C27.2485 27.1879 27.3323 27.2586 27.4353 27.2586H28.3585C28.4615 27.2586 28.5453 27.1879 28.5453 27.101V26.322C28.5453 26.2351 28.4615 26.1644 28.3585 26.1644H27.4353Z" fill="#3A312A"/>
<path d="M31.7781 27.4169H30.8548C30.6481 27.4169 30.4806 27.2756 30.4806 27.1011V26.3221C30.4806 26.1477 30.6481 26.0063 30.8548 26.0063H31.7782C31.985 26.0063 32.1525 26.1477 32.1525 26.3221V27.1011C32.1523 27.2755 31.9848 27.4169 31.7781 27.4169Z" fill="#D4DA55"/>
<path d="M31.7782 27.5751H30.8548C30.5451 27.5751 30.2931 27.3625 30.2931 27.1011V26.3221C30.2931 26.0608 30.5451 25.8481 30.8548 25.8481H31.7782C32.088 25.8481 32.34 26.0608 32.34 26.3221V27.1011C32.34 27.3625 32.088 27.5751 31.7782 27.5751ZM30.8548 26.1644C30.7518 26.1644 30.6681 26.2351 30.6681 26.322V27.101C30.6681 27.1879 30.7518 27.2586 30.8548 27.2586H31.7782C31.8812 27.2586 31.965 27.1879 31.965 27.101V26.322C31.965 26.2351 31.8812 26.1644 31.7782 26.1644H30.8548Z" fill="#3A312A"/>
<path d="M35.1979 27.4167H34.2745C34.0678 27.4167 33.9003 27.2754 33.9003 27.101V26.3219C33.9003 26.1474 34.0678 26.0061 34.2745 26.0061H35.1978C35.4045 26.0061 35.572 26.1474 35.572 26.3219V27.1009C35.5721 27.2753 35.4045 27.4167 35.1979 27.4167Z" fill="#D4DA55"/>
<path d="M35.1978 27.5751H34.2745C33.9648 27.5751 33.7128 27.3625 33.7128 27.1011V26.3221C33.7128 26.0608 33.9648 25.8481 34.2745 25.8481H35.1978C35.5075 25.8481 35.7595 26.0608 35.7595 26.3221V27.1011C35.7596 27.3625 35.5075 27.5751 35.1978 27.5751ZM34.2745 26.1644C34.1715 26.1644 34.0878 26.2351 34.0878 26.322V27.101C34.0878 27.1879 34.1716 27.2586 34.2745 27.2586H35.1978C35.3008 27.2586 35.3845 27.1879 35.3845 27.101V26.322C35.3845 26.2351 35.3008 26.1644 35.1978 26.1644H34.2745Z" fill="#3A312A"/>
<path d="M27.8993 19.6567C27.8993 19.8513 27.7123 20.0091 27.4817 20.0091C27.2511 20.0091 27.0641 19.8513 27.0641 19.6567C27.0641 19.4621 27.2511 19.3043 27.4817 19.3043C27.7123 19.3043 27.8993 19.4621 27.8993 19.6567Z" fill="#EB6E7A"/>
<path d="M27.4817 20.1674C27.1481 20.1674 26.8766 19.9383 26.8766 19.6568C26.8766 19.3752 27.1481 19.1461 27.4817 19.1461C27.8153 19.1461 28.0868 19.3752 28.0868 19.6568C28.0868 19.9383 27.8153 20.1674 27.4817 20.1674ZM27.4817 19.4625C27.3548 19.4625 27.2516 19.5496 27.2516 19.6568C27.2516 19.7639 27.3548 19.851 27.4817 19.851C27.6086 19.851 27.7118 19.7639 27.7118 19.6568C27.7118 19.5496 27.6086 19.4625 27.4817 19.4625Z" fill="#3A312A"/>
<path d="M32.1656 19.6567C32.1656 19.8513 31.9786 20.0091 31.7479 20.0091C31.5173 20.0091 31.3303 19.8513 31.3303 19.6567C31.3303 19.4621 31.5173 19.3043 31.7479 19.3043C31.9786 19.3043 32.1656 19.4621 32.1656 19.6567Z" fill="#EB6E7A"/>
<path d="M31.7479 20.1674C31.4143 20.1674 31.1428 19.9383 31.1428 19.6568C31.1428 19.3752 31.4143 19.1461 31.7479 19.1461C32.0816 19.1461 32.3531 19.3752 32.3531 19.6568C32.3531 19.9383 32.0816 20.1674 31.7479 20.1674ZM31.7479 19.4625C31.6211 19.4625 31.5178 19.5496 31.5178 19.6568C31.5178 19.7639 31.6211 19.851 31.7479 19.851C31.8748 19.851 31.9781 19.7639 31.9781 19.6568C31.9781 19.5496 31.8748 19.4625 31.7479 19.4625Z" fill="#3A312A"/>
<path d="M34.7281 20.6403V21.2014H35.1981C35.5081 21.2014 35.7593 21.4144 35.7593 21.676V22.4554C35.7593 22.7159 35.5081 22.9289 35.1981 22.9289H34.7281V23.5248H35.1981C35.5081 23.5248 35.7593 23.7379 35.7593 23.9994V24.7778C35.7593 25.0394 35.5081 25.2524 35.1981 25.2524H34.7281V25.8483H35.1981C35.5081 25.8483 35.7593 26.0603 35.7593 26.3219V27.1013C35.7593 27.3628 35.5081 27.5748 35.1981 27.5748H34.7256C34.7031 27.8807 34.4018 28.1233 34.0331 28.1233H36.0331C36.4168 28.1233 36.7281 27.8596 36.7281 27.5358V20.6403H34.7281Z" fill="#DECAAD"/>
<path d="M36.0331 18.9812H34.0331C34.4168 18.9812 34.7281 19.2449 34.7281 19.5687V20.3238H36.7281V19.5687C36.7281 19.2449 36.4168 18.9812 36.0331 18.9812Z" fill="#695B51"/>
</svg>
