<svg width="46" height="46" viewBox="0 0 46 46" fill="none" xmlns="http://www.w3.org/2000/svg">
<mask id="mask0" mask-type="alpha" maskUnits="userSpaceOnUse" x="0" y="0" width="46" height="46">
<circle cx="23" cy="23" r="23" fill="#0BCAD4"/>
</mask>
<g mask="url(#mask0)">
<circle cx="23" cy="23" r="23" fill="#0BCAD4"/>
<path d="M33 38.4847C33 39.8655 28.9706 40.9847 24 40.9847C19.0294 40.9847 15 39.8655 15 38.4847C15 37.104 19.0294 35.9847 24 35.9847C28.9706 35.9847 33 37.104 33 38.4847Z" fill="#0AA8B0"/>
</g>
<path d="M15.3313 17.7286V13.8708C15.3313 13.5441 15.0664 13.2792 14.7396 13.2792H12.7683C12.4415 13.2792 12.1766 13.5441 12.1766 13.8708V17.7286" fill="#E5E9EA"/>
<path d="M13.6093 17.7286V13.2792H12.7683C12.4415 13.2792 12.1766 13.5441 12.1766 13.8708V17.7286" fill="#D1D1D1"/>
<path d="M37 18.4317V32.8657C37 33.8553 36.1977 34.6576 35.2081 34.6576H11.7919C10.8023 34.6576 10 33.8553 10 32.8657V18.4317C10 17.4421 10.8023 16.6398 11.7919 16.6398H15.3351C16.0983 16.6398 16.7783 16.1565 17.0284 15.4353L17.6825 13.5475C17.9327 12.8262 18.6121 12.3424 19.3758 12.3424H29.8285C30.5917 12.3424 31.271 12.8262 31.5212 13.5475L32.1758 15.4353C32.426 16.1566 33.1054 16.6398 33.8685 16.6398H35.208C36.1977 16.6398 37 17.4421 37 18.4317Z" fill="#FCB65F"/>
<path d="M13.197 34.6576H11.7919C10.8023 34.6576 10 33.8553 10 32.8657V18.4317C10 17.4421 10.8023 16.6398 11.7919 16.6398H13.0857V16.6431C12.1479 16.7009 11.4051 17.4796 11.4051 18.4317V32.8657C11.4051 33.8553 12.2074 34.6576 13.197 34.6576Z" fill="#E29A4B"/>
<path d="M20.7808 12.3424C20.0172 12.3424 19.3377 12.8262 19.0875 13.5475L18.4335 15.4353C18.1833 16.1566 17.5034 16.6398 16.7402 16.6398H15.5378V16.6282C16.2167 16.5511 16.8008 16.0921 17.0283 15.4353L17.6824 13.5475C17.9326 12.8262 18.6119 12.3424 19.3757 12.3424C19.3758 12.3424 20.7808 12.3424 20.7808 12.3424Z" fill="#E29A4B"/>
<path d="M37 21.5164V32.8657C37 33.8554 36.1977 34.6577 35.2081 34.6577H11.7919C10.8023 34.6577 10 33.8554 10 32.8657V21.5164H37Z" fill="#53E9B3"/>
<path d="M13.197 34.6576H11.7919C10.8023 34.6576 10 33.8553 10 32.8657V21.5164H11.4051V32.8657C11.4051 33.8554 12.2074 34.6576 13.197 34.6576Z" fill="#36AF58"/>
<path d="M23.5001 32.9769C27.6233 32.9769 30.9658 29.6344 30.9658 25.5112C30.9658 21.3879 27.6233 18.0454 23.5001 18.0454C19.3768 18.0454 16.0343 21.3879 16.0343 25.5112C16.0343 29.6344 19.3768 32.9769 23.5001 32.9769Z" fill="#E5E9EA"/>
<path d="M28.7788 25.5112C28.7788 27.0657 28.1071 28.463 27.0375 29.4296C26.1014 30.2754 24.8615 30.7905 23.5 30.7905C22.139 30.7905 20.8986 30.2753 19.9625 29.4295C18.893 28.4636 18.2207 27.0656 18.2207 25.5112C18.2207 23.9567 18.893 22.5588 19.9625 21.5934C20.8987 20.7471 22.139 20.2324 23.5 20.2324C24.8615 20.2324 26.1014 20.7476 27.0375 21.5934C28.1071 22.5594 28.7788 23.9568 28.7788 25.5112Z" fill="#566368"/>
<path d="M27.2324 21.7784C28.3315 22.8775 28.8447 24.3406 28.7718 25.7803C27.3321 25.8531 25.8691 25.34 24.7699 24.2409C23.6708 23.1417 23.1576 21.6787 23.2309 20.2394C24.6701 20.1662 26.1333 20.6793 27.2324 21.7784Z" fill="#6F7B7F"/>
<path d="M22.2295 26.7813C23.3287 27.8804 23.8418 29.3435 23.769 30.7832C22.3296 30.8564 20.8658 30.3433 19.7667 29.2441C18.6675 28.145 18.1544 26.6811 18.228 25.2422C19.6673 25.1689 21.1304 25.6821 22.2295 26.7813Z" fill="#6F7B7F"/>
<path d="M23.4999 31.2036C20.3612 31.2036 17.8076 28.65 17.8076 25.5113C17.8076 22.3727 20.3612 19.8191 23.4999 19.8191C26.6386 19.8191 29.1921 22.3726 29.1921 25.5113C29.1921 28.6501 26.6386 31.2036 23.4999 31.2036ZM23.4999 20.6456C20.8169 20.6456 18.6341 22.8284 18.6341 25.5113C18.6341 28.1943 20.8169 30.3771 23.4999 30.3771C26.1828 30.3771 28.3656 28.1943 28.3656 25.5113C28.3656 22.8284 26.1828 20.6456 23.4999 20.6456Z" fill="#435054"/>
<path d="M23.4999 23.3922C22.3314 23.3922 21.3807 24.3429 21.3807 25.5114C21.3807 26.6799 22.3314 27.6305 23.4999 27.6305C24.6684 27.6305 25.619 26.6799 25.619 25.5114C25.619 24.3429 24.6684 23.3922 23.4999 23.3922Z" fill="#435054"/>
<path d="M26.1819 16.2267H29.4294C29.8564 16.2267 30.2025 15.8806 30.2025 15.4536V14.6029C30.2025 14.176 29.8564 13.8298 29.4294 13.8298H26.1819C25.755 13.8298 25.4088 14.1759 25.4088 14.6029V15.4536C25.4088 15.8806 25.755 16.2267 26.1819 16.2267Z" fill="#E5E9EA"/>
<path d="M29.4295 16.64H26.182C25.5278 16.64 24.9956 16.1078 24.9956 15.4536V14.603C24.9956 13.9488 25.5278 13.4166 26.182 13.4166H29.4295C30.0837 13.4166 30.6159 13.9488 30.6159 14.603V15.4536C30.6158 16.1078 30.0836 16.64 29.4295 16.64ZM26.182 14.2431C25.9835 14.2431 25.8222 14.4046 25.8222 14.6029V15.4536C25.8222 15.652 25.9835 15.8134 26.182 15.8134H29.4295C29.628 15.8134 29.7893 15.652 29.7893 15.4536V14.603C29.7893 14.4046 29.6279 14.2432 29.4295 14.2432C29.4295 14.2431 26.182 14.2431 26.182 14.2431Z" fill="#E29A4B"/>
<path d="M15.1328 33.1279C15.9581 33.1279 16.6272 32.4589 16.6272 31.6335C16.6272 30.8082 15.9581 30.1392 15.1328 30.1392C14.3075 30.1392 13.6384 30.8082 13.6384 31.6335C13.6384 32.4589 14.3075 33.1279 15.1328 33.1279Z" fill="#566368"/>
</svg>
