<svg width="46" height="46" viewBox="0 0 46 46" fill="none" xmlns="http://www.w3.org/2000/svg">
<mask id="mask0" mask-type="alpha" maskUnits="userSpaceOnUse" x="0" y="0" width="46" height="46">
<circle cx="23" cy="23" r="23" fill="#0BCAD4"/>
</mask>
<g mask="url(#mask0)">
<circle cx="23" cy="23" r="23" fill="#0BCAD4"/>
<ellipse cx="23" cy="38.5" rx="9" ry="2.5" fill="#0AA8B0"/>
</g>
<g clip-path="url(#clip0)">
<path d="M16.6096 25.3748H30.8471V33.5104H16.6096V25.3748Z" fill="#EA9D2D"/>
<path d="M30.8471 25.3748H16.6096L18.9824 20.2899H28.474L30.8471 25.3748Z" fill="#C38325"/>
<path d="M16.6096 25.3748H12.457L14.8298 20.2899H18.9824L16.6096 25.3748Z" fill="#F7BA61"/>
<path d="M30.8471 25.3748H34.9994L32.6266 20.2899H28.474L30.8471 25.3748Z" fill="#F7BA61"/>
<path d="M25.5078 28.9341L23.7284 28.4255L21.9486 28.9341V25.3748H25.5078V28.9341Z" fill="#F55648"/>
<path d="M29.0673 31.4766H26.1012C25.7735 31.4766 25.5078 31.2489 25.5078 30.968C25.5078 30.6872 25.7735 30.4595 26.1012 30.4595H29.0673C29.395 30.4595 29.6604 30.6872 29.6604 30.968C29.6604 31.2489 29.395 31.4766 29.0673 31.4766Z" fill="#C38325"/>
<path d="M18.9824 20.2899H28.474V25.3748H18.9824V20.2899Z" fill="#DA922A"/>
<path d="M39.1519 13.1712C39.1519 14.5754 37.824 15.7136 36.186 15.7136C34.5478 15.7136 33.2198 14.5754 33.2198 13.1712C33.2198 11.7673 34.5478 10.629 36.186 10.629C37.824 10.629 39.1519 11.7673 39.1519 13.1712Z" fill="#F7BA61"/>
<path d="M37.3724 15.7137C37.3724 17.1179 36.0444 18.2561 34.4062 18.2561C32.768 18.2561 31.4401 17.1179 31.4401 15.7137C31.4401 14.3097 32.768 13.1713 34.4062 13.1713C36.0444 13.1713 37.3724 14.3097 37.3724 15.7137Z" fill="#6CBAE5"/>
<path d="M40.9317 15.7137C40.9317 17.1179 39.6038 18.2561 37.9655 18.2561C36.3276 18.2561 34.9994 17.1179 34.9994 15.7137C34.9994 14.3097 36.3276 13.1713 37.9655 13.1713C39.6038 13.1713 40.9317 14.3097 40.9317 15.7137Z" fill="#F55648"/>
<path d="M35.0231 15.5105C35.0891 14.7895 35.5123 14.1271 36.186 13.6915C35.3441 13.1376 34.2191 13.0163 33.2437 13.3748C33.328 14.3148 34.0132 15.1372 35.0231 15.5105Z" fill="#89B140"/>
<path d="M36.186 13.6915C36.8595 14.1271 37.2827 14.7895 37.3487 15.5105C38.3586 15.1372 39.0438 14.3148 39.1284 13.3748C38.153 13.0163 37.0277 13.1376 36.186 13.6915Z" fill="#F27E55"/>
<path d="M37.3725 15.7137C37.3725 15.6442 37.3546 15.5785 37.3487 15.5105C36.6058 15.7817 35.766 15.7817 35.0232 15.5105C35.0173 15.5785 34.9994 15.6442 34.9994 15.7137C35.0013 16.5105 35.4411 17.2596 36.1858 17.7359C36.9308 17.2596 37.3706 16.5105 37.3725 15.7137Z" fill="#D970A2"/>
<path d="M36.186 13.6915C35.5123 14.1271 35.089 14.7895 35.0231 15.5104C35.7659 15.7817 36.6058 15.7817 37.3486 15.5104C37.2827 14.7895 36.8594 14.1271 36.186 13.6915Z" fill="#3BD6D0"/>
<path d="M23.7282 16.2074L19.5757 13.3311L23.7282 10.4547L27.8808 13.3311L23.7282 16.2074Z" fill="#F7BA61"/>
<path d="M23.7282 13.3311L19.5757 10.4547L23.7282 7.57812L27.8808 10.4547L23.7282 13.3311Z" fill="#AEDEE2"/>
<path d="M23.7282 10.2803L19.5757 7.4037L23.7282 4.52734L27.8808 7.4037L23.7282 10.2803Z" fill="#D970A2"/>
<path d="M13.0504 12.1543C13.0568 10.7504 11.7342 9.60755 10.0962 9.60183C8.45802 9.59611 7.12474 10.73 7.11807 12.1339C7.11433 12.9437 7.5608 13.7068 8.3205 14.1884H8.30447V16.7306H11.864V14.1884H11.8479C12.6023 13.7121 13.0485 12.9575 13.0504 12.1543Z" fill="#F7BA61"/>
<path d="M10.0842 16.7307C9.75654 16.7307 9.49084 16.5032 9.49084 16.2223V12.663C9.49084 12.3822 9.75654 12.1544 10.0842 12.1544C10.4118 12.1544 10.6775 12.3822 10.6775 12.663V16.2223C10.6773 16.5032 10.4118 16.7307 10.0842 16.7307Z" fill="#EA9D2D"/>
<path d="M10.0841 13.1713C9.42883 13.1713 8.89771 12.716 8.89771 12.1544C8.89771 11.5929 9.42883 11.1375 10.0841 11.1375C10.7394 11.1375 11.2705 11.5929 11.2705 12.1544C11.2705 12.716 10.7394 13.1713 10.0841 13.1713Z" fill="#EA9D2D"/>
<path d="M8.30444 16.2223H11.8639V16.7306C11.8639 17.5732 11.0671 18.2561 10.0842 18.2561C9.10126 18.2561 8.30444 17.5732 8.30444 16.7306V16.2223Z" fill="#6FBBC6"/>
<path d="M16.0162 12.663H17.2029V13.6799H16.0162V12.663Z" fill="#AEDEE2"/>
<path d="M9.49084 7.0697H10.6773V8.08662H9.49084V7.0697Z" fill="#F7BA61"/>
<path d="M13.0504 8.08667H14.2368V9.10359H13.0504V8.08667Z" fill="#F7BA61"/>
<path d="M5.93164 8.08667H7.11805V9.10359H5.93164V8.08667Z" fill="#F7BA61"/>
<path d="M23.135 17.7478H24.3214V18.7647H23.135V17.7478Z" fill="#AEDEE2"/>
<path d="M30.847 9.10364H32.0334V10.1206H30.847V9.10364Z" fill="#AEDEE2"/>
</g>
<defs>
<clipPath id="clip0">
<rect width="35" height="30" fill="white" transform="translate(6 4)"/>
</clipPath>
</defs>
</svg>
